<?xml version="1.0" encoding="UTF-8"?>
<!DOCTYPE svg PUBLIC "-//W3C//DTD SVG 1.1//EN" "http://www.w3.org/Graphics/SVG/1.1/DTD/svg11.dtd">
<!-- Creator: CorelDRAW 2021.5 -->
<svg xmlns="http://www.w3.org/2000/svg" xml:space="preserve" width="100px" height="100px" version="1.1" style="shape-rendering:geometricPrecision; text-rendering:geometricPrecision; image-rendering:optimizeQuality; fill-rule:evenodd; clip-rule:evenodd"
viewBox="0 0 4.29 4.29"
 xmlns:xlink="http://www.w3.org/1999/xlink"
 xmlns:xodm="http://www.corel.com/coreldraw/odm/2003">
 <defs>
  <style type="text/css">
   <![CDATA[
    .str0 {stroke:#DBDBDB;stroke-width:0.13;stroke-miterlimit:22.9256}
    .fil0 {fill:none;fill-rule:nonzero}
    .fil1 {fill:#B5B5B5;fill-rule:nonzero}
   ]]>
  </style>
 </defs>
 <g id="Слой_x0020_1">
  <metadata id="CorelCorpID_0Corel-Layer"/>
  <path class="fil0 str0" d="M1.07 0.07l2.14 0c0.56,0 1.01,0.45 1.01,1l0 2.14c0,0.56 -0.45,1.01 -1.01,1.01l-2.14 0c-0.55,0 -1,-0.45 -1,-1.01l0 -2.14c0,-0.55 0.45,-1 1,-1z"/>
  <path class="fil1" d="M2.69 2.49l-0.33 -0.32 0.33 -0.33c0.13,-0.13 -0.07,-0.33 -0.2,-0.2l-0.32 0.33 -0.33 -0.33c-0.13,-0.13 -0.33,0.07 -0.2,0.2l0.33 0.33 -0.33 0.32c-0.13,0.13 0.07,0.33 0.2,0.2l0.33 -0.33 0.32 0.33c0.13,0.13 0.33,-0.07 0.2,-0.2z"/>
 </g>
</svg>
