<?xml version="1.0" encoding="UTF-8"?>
<!DOCTYPE svg PUBLIC "-//W3C//DTD SVG 1.1//EN" "http://www.w3.org/Graphics/SVG/1.1/DTD/svg11.dtd">
<!-- Creator: CorelDRAW 2021.5 -->
<svg xmlns="http://www.w3.org/2000/svg" xml:space="preserve" width="100px" height="100px" version="1.1" style="shape-rendering:geometricPrecision; text-rendering:geometricPrecision; image-rendering:optimizeQuality; fill-rule:evenodd; clip-rule:evenodd"
viewBox="0 0 8 8"
 xmlns:xlink="http://www.w3.org/1999/xlink"
 xmlns:xodm="http://www.corel.com/coreldraw/odm/2003">
 <defs>
  <style type="text/css">
   <![CDATA[
    .str0 {stroke:#F2F2F2;stroke-width:0.25;stroke-miterlimit:22.9256}
    .fil0 {fill:none;fill-rule:nonzero}
    .fil1 {fill:lightgrey;fill-rule:nonzero}
   ]]>
  </style>
 </defs>
 <g id="Слой_x0020_1">
  <metadata id="CorelCorpID_0Corel-Layer"/>
  <path class="fil0 str0" d="M2 0.13l4 0c1.04,0 1.88,0.83 1.88,1.87l0 4c0,1.04 -0.84,1.88 -1.88,1.88l-4 0c-1.04,0 -1.87,-0.84 -1.87,-1.88l0 -4c0,-1.04 0.83,-1.87 1.87,-1.87z"/>
  <path class="fil1" d="M5.17 3.78l-0.87 0 0 -0.86c0,-0.34 -0.52,-0.34 -0.52,0l0 0.86 -0.86 0c-0.34,0 -0.34,0.52 0,0.52l0.86 0 0 0.87c0,0.33 0.52,0.33 0.52,0l0 -0.87 0.87 0c0.33,0 0.33,-0.52 0,-0.52z"/>
 </g>
</svg>
