<?xml version="1.0" encoding="UTF-8"?>
<!DOCTYPE svg PUBLIC "-//W3C//DTD SVG 1.1//EN" "http://www.w3.org/Graphics/SVG/1.1/DTD/svg11.dtd">
<!-- Creator: CorelDRAW 2021.5 -->
<svg xmlns="http://www.w3.org/2000/svg" xml:space="preserve" width="313px" height="313px" version="1.1" style="shape-rendering:geometricPrecision; text-rendering:geometricPrecision; image-rendering:optimizeQuality; fill-rule:evenodd; clip-rule:evenodd"
viewBox="0 0 59.29 59.29"
 xmlns:xlink="http://www.w3.org/1999/xlink"
 xmlns:xodm="http://www.corel.com/coreldraw/odm/2003">
 <defs>
  <style type="text/css">
   <![CDATA[
    .str0 {stroke:#F2F2F2;stroke-width:1.86;stroke-miterlimit:22.9256}
    .str1 {stroke:lightgrey;stroke-width:2.63;stroke-miterlimit:22.9256}
    .fil0 {fill:none}
   ]]>
  </style>
 </defs>
 <g id="Слой_x0020_1">
  <metadata id="CorelCorpID_0Corel-Layer"/>
  <g id="_105553201384992">
   <path class="fil0 str0" d="M12.99 0.93l33.31 0c6.65,0 12.06,5.41 12.06,12.06l0 33.31c0,6.65 -5.41,12.06 -12.06,12.06l-33.31 0c-6.65,0 -12.06,-5.41 -12.06,-12.06l0 -33.31c0,-6.65 5.41,-12.06 12.06,-12.06z"/>
   <path class="fil0 str1" d="M40.58 28.52c0.39,-0.93 0.62,-1.93 0.62,-2.78 0,-0.85 -0.23,-1.78 -0.54,-2.55 -0.39,-0.85 -0.85,-1.55 -1.47,-2.17 -0.23,-0.38 -1.78,-1.23 -2.24,-1.39 -0.62,-0.38 -1.86,-0.54 -2.63,-0.54 -1.31,0 -2.55,0.31 -3.63,1.01 -0.24,0.15 -0.54,0.31 -0.78,0.46l-0.77 0.7 -0.85 -0.7c-0.23,-0.15 -0.46,-0.31 -0.7,-0.46 -1.08,-0.7 -2.39,-1.01 -3.63,-1.01 -0.93,0 -1.85,0.16 -2.7,0.54 -1.7,0.85 -2.86,1.7 -3.64,3.48 -0.31,0.85 -0.54,1.78 -0.54,2.63 0,0.85 0.16,1.78 0.54,2.7 0.31,0.78 0.7,1.7 1.39,2.56 2.32,2.93 4.72,5.33 7.73,7.49 0.78,0.62 1.55,1.08 2.4,1.63 4.95,-3.17 8.66,-6.34 11.44,-11.6l0 0z"/>
  </g>
 </g>
</svg>
