<?xml version="1.0" encoding="UTF-8"?>
<!DOCTYPE svg PUBLIC "-//W3C//DTD SVG 1.1//EN" "http://www.w3.org/Graphics/SVG/1.1/DTD/svg11.dtd">
<!-- Creator: CorelDRAW 2021.5 -->
<svg xmlns="http://www.w3.org/2000/svg" xml:space="preserve" width="167px" height="163px" version="1.1" style="shape-rendering:geometricPrecision; text-rendering:geometricPrecision; image-rendering:optimizeQuality; fill-rule:evenodd; clip-rule:evenodd"
viewBox="0 0 23.12 22.67"
 xmlns:xlink="http://www.w3.org/1999/xlink"
 xmlns:xodm="http://www.corel.com/coreldraw/odm/2003">
 <defs>
  <style type="text/css">
   <![CDATA[
    .fil16 {fill:#216EA1}
    .fil13 {fill:#2572A6}
    .fil5 {fill:#2774A8}
    .fil17 {fill:#2976A9}
    .fil14 {fill:#4591C6}
    .fil7 {fill:#4693C8}
    .fil6 {fill:#52576B}
    .fil1 {fill:#64B1E7}
    .fil8 {fill:#7BC8F2}
    .fil12 {fill:#CED1CC}
    .fil9 {fill:#D1D4CD}
    .fil15 {fill:#D3D5D0}
    .fil2 {fill:#D5D7D2}
    .fil10 {fill:#D9DCD4}
    .fil11 {fill:#DEE2DA}
    .fil0 {fill:#FCB858}
    .fil3 {fill:#FD9250}
    .fil4 {fill:#FE6D48}
   ]]>
  </style>
 </defs>
 <g id="Слой_x0020_1">
  <metadata id="CorelCorpID_0Corel-Layer"/>
  <g id="_105553207260992">
   <path class="fil0" d="M0.87 9.79c1.32,-0.66 2.7,-1.26 4.63,-0.54l1.42 -0.19c0.02,-0.73 0.21,-0.47 0.91,-0.27l0.6 -0.16 0.35 -0.65 0.48 0.18 0.75 -0.37c0.47,-1.12 -0.23,-0.47 0.82,-0.81 0.48,-0.43 0.18,-0.18 0.7,-0.35l0.05 -0.73 0.56 -0.04 0.62 -0.75c0.7,-0.28 0.37,-0.27 1.01,-0.96 1.31,0.16 1.77,0.69 2.64,1.62l-0.23 0.91 0.25 0.34c1.2,0.65 1.62,1.7 3.58,1.75 1.65,-0.87 1,-1.4 2.24,-2.13 -0.66,-1.07 -0.96,-1.72 -1.82,-2.74 -4.31,-5.13 -12.04,-5.07 -16.58,-0.56 -1.43,1.42 -2.98,4.2 -2.98,6.45z"/>
   <path class="fil1" d="M12.97 14.27c-1.08,2.14 -3.7,2.94 -4,4.88l1.11 -0.17c0.37,-0.82 1.49,-1.07 2.39,-1.52 1.08,-0.55 1.79,-0.9 2.83,-1.51 1.63,-0.96 3.79,-2.06 5.19,-3.12 -1.45,-1.31 -2.08,-1.44 -1.27,-3.62 -1.39,0.63 -1.93,0.21 -3.33,0.17 -1.34,2.35 -1.13,2.96 -2.92,4.89z"/>
   <path class="fil2" d="M20.49 12.83c-1.4,1.06 -3.56,2.16 -5.19,3.12 -1.04,0.61 -1.75,0.96 -2.83,1.51 -0.9,0.45 -2.02,0.7 -2.39,1.52l0.82 1.85 2.2 -0.69c1.03,-1.19 3.22,-1.94 4.54,-2.73 1.25,-0.75 3.53,-2.35 4.9,-2.75 0.25,-0.27 0.02,0.18 0.28,-0.48 0,0 0.23,-0.82 0.24,-0.86 0.03,-0.2 0.05,-0.4 0.06,-0.6l0 -1.48 0 -0.04 -2.63 1.63z"/>
   <path class="fil3" d="M13.1 20.14c0.76,0.86 1.28,1.14 1.9,1.88 1.39,-0.11 3.86,-1.72 4.73,-2.52 0.52,-0.49 1.28,-1.55 1.64,-2.11 0.57,-0.87 0.94,-1.51 1.17,-2.73 -1.37,0.4 -3.65,2 -4.9,2.75 -1.32,0.79 -3.51,1.54 -4.54,2.73z"/>
   <path class="fil4" d="M3.76 18.94c0.98,-0.86 1.71,-1.79 3.58,-2.13l1.02 -0.8c0.28,-1.36 -0.32,-0.31 0.84,-0.82l0.11 -0.33 -2.69 -0.24c-2.41,-0.19 -3.66,-0.63 -5.75,-1.29 0.16,2.05 1.64,4.51 2.89,5.61z"/>
   <path class="fil5" d="M9.26 8.16c1.12,2.03 0.36,1.6 0.28,1.76 -1.05,-0.57 -0.3,-0.47 -1.11,-1.29l-0.6 0.16c-0.01,1.19 0.03,0.94 -0.32,1.52 -0.38,-0.35 -0.4,0.04 -0.59,-1.25l-1.42 0.19c-0.87,0.84 -1.55,0.83 -1.79,2.3 0.78,0.48 1.12,0.45 2.12,0.58 0.38,-0.93 -0.36,-0.29 0.84,-0.77l5.18 -0.66 0.28 0.02c0.82,-0.18 0.2,0.18 0.74,-0.4 0.43,-0.47 0.26,-0.45 0.41,-0.78 -0.68,-0.06 -1.74,-0.1 -2.15,-0.38 -0.36,-0.25 -0.24,-0.38 -0.59,-0.88 -0.39,-0.58 -0.03,-0.27 -0.53,-0.49l-0.75 0.37z"/>
   <path class="fil6" d="M8.97 19.15l-2.25 0.5c-0.41,0.47 -0.54,0.41 -1.28,0.55 -0.65,0.12 -1.31,0.16 -1.97,0.21 0.37,3.65 2.73,1.85 5.08,1.61l2.35 -1.19 -0.82 -1.85 -1.11 0.17z"/>
   <path class="fil6" d="M0.87 13.33c2.09,0.66 3.34,1.1 5.75,1.29l0.33 -2.32 -1.12 -0.17c-1,-0.13 -1.34,-0.1 -2.12,-0.58 -1.26,-0.01 -2.29,-0.41 -3.11,-1.09 -0.05,0.05 -0.12,0.06 -0.14,0.16 -0.06,0.34 -0.46,-0.24 -0.46,2.16l0.87 0.55z"/>
   <path class="fil7" d="M14.86 8.24l0.32 0.84 -1.9 0.46c-0.15,0.33 0.02,0.31 -0.41,0.78 -0.54,0.58 0.08,0.22 -0.74,0.4l1.63 0.86c-0.58,0.62 -0.93,0.6 -1.77,-0.02l-0.17 0.89 -0.47 -0.06c0.98,1.1 1.24,0.19 1.19,1.69l0.43 0.19c1.79,-1.93 1.58,-2.54 2.92,-4.89 1.4,0.04 1.94,0.46 3.33,-0.17l0.79 -0.44c-1.96,-0.05 -2.38,-1.1 -3.58,-1.75 -0.42,0.73 -0.58,0.77 -1.57,1.22z"/>
   <path class="fil8" d="M20.01 8.77l-0.79 0.44c-0.81,2.18 -0.18,2.31 1.27,3.62l2.63 -1.63c0,-2.01 -0.28,-3.17 -0.87,-4.56 -1.24,0.73 -0.59,1.26 -2.24,2.13z"/>
   <path class="fil5" d="M9.31 14.86l-0.11 0.33c0.36,1.12 0.89,0.28 0.31,1.31 -0.27,0.12 0.43,0.46 -0.56,0.03 -0.83,-0.35 0.04,0.13 -0.59,-0.52l-1.02 0.8c-0.55,1.27 -0.72,1.21 -0.62,2.84l2.25 -0.5c0.3,-1.94 2.92,-2.74 4,-4.88l-0.43 -0.19c-1.07,-0.4 -1.93,-1.37 -2.26,-0.58 -0.5,1.19 0.65,0.16 0.94,1.84 -1.67,-0.12 -0.87,-0.91 -1.91,-0.48z"/>
   <path class="fil9" d="M6.62 14.62l2.69 0.24c1.04,-0.43 0.24,0.36 1.91,0.48 -0.29,-1.68 -1.44,-0.65 -0.94,-1.84 0.33,-0.79 1.19,0.18 2.26,0.58 0.05,-1.5 -0.21,-0.59 -1.19,-1.69l-0.46 -0.03 -3.94 -0.06 -0.33 2.32z"/>
   <path class="fil4" d="M10.9 20.83l-2.35 1.19c1.71,0.67 4.79,0.84 6.45,0 -0.62,-0.74 -1.14,-1.02 -1.9,-1.88l-2.2 0.69z"/>
   <path class="fil10" d="M11.53 6.63l1.02 1.11c-0.59,0.59 -0.39,0.42 -1.01,0.78 -0.43,-0.93 -0.4,-0.43 -0.71,-1.54 -1.05,0.34 -0.35,-0.31 -0.82,0.81 0.5,0.22 0.14,-0.09 0.53,0.49 0.35,0.5 0.23,0.63 0.59,0.88 0.41,0.28 1.47,0.32 2.15,0.38l1.9 -0.46 -0.32 -0.84c-1.73,-0.46 -0.69,0.03 -1.58,-0.94 -0.8,-0.85 -0.69,-0.42 -1.14,-1.44l-0.56 0.04 -0.05 0.73z"/>
   <path class="fil11" d="M3.76 18.94c-0.2,0.7 -0.23,0.54 -0.29,1.47 0.66,-0.05 1.32,-0.09 1.97,-0.21 0.74,-0.14 0.87,-0.08 1.28,-0.55 -0.1,-1.63 0.07,-1.57 0.62,-2.84 -1.87,0.34 -2.6,1.27 -3.58,2.13z"/>
   <path class="fil12" d="M0.87 9.79l-0.27 0.67c0.82,0.68 1.85,1.08 3.11,1.09 0.24,-1.47 0.92,-1.46 1.79,-2.3 -1.93,-0.72 -3.31,-0.12 -4.63,0.54z"/>
   <path class="fil13" d="M12.14 5.86c0.45,1.02 0.34,0.59 1.14,1.44 0.89,0.97 -0.15,0.48 1.58,0.94 0.99,-0.45 1.15,-0.49 1.57,-1.22l-0.25 -0.34c-0.88,-0.72 -0.97,-0.32 -1.85,-0.74 -0.66,-0.31 -0.57,-0.53 -1.57,-0.83l-0.62 0.75z"/>
   <path class="fil14" d="M5.83 12.13l1.12 0.17 3.94 0.06 0.14 -0.79 0.6 0.02 -0.67 -0.55c0.32,-0.46 -0.66,-0.4 0.89,-0.34l-5.18 0.66c-1.2,0.48 -0.46,-0.16 -0.84,0.77z"/>
   <path class="fil9" d="M12.76 5.11c1,0.3 0.91,0.52 1.57,0.83 0.88,0.42 0.97,0.02 1.85,0.74l0.23 -0.91c-0.87,-0.93 -1.33,-1.46 -2.64,-1.62 -0.64,0.69 -0.31,0.68 -1.01,0.96z"/>
   <path class="fil15" d="M11.63 11.59l0.36 -0.03c0.84,0.62 1.19,0.64 1.77,0.02l-1.63 -0.86 -0.28 -0.02c-1.55,-0.06 -0.57,-0.12 -0.89,0.34l0.67 0.55z"/>
   <path class="fil16" d="M10.83 6.98c0.31,1.11 0.28,0.61 0.71,1.54 0.62,-0.36 0.42,-0.19 1.01,-0.78l-1.02 -1.11c-0.52,0.17 -0.22,-0.08 -0.7,0.35z"/>
   <path class="fil12" d="M8.43 8.63c0.81,0.82 0.06,0.72 1.11,1.29 0.08,-0.16 0.84,0.27 -0.28,-1.76l-0.48 -0.18 -0.35 0.65z"/>
   <path class="fil12" d="M8.36 16.01c0.63,0.65 -0.24,0.17 0.59,0.52 0.99,0.43 0.29,0.09 0.56,-0.03 0.58,-1.03 0.05,-0.19 -0.31,-1.31 -1.16,0.51 -0.56,-0.54 -0.84,0.82z"/>
   <path class="fil12" d="M7.83 8.79c-0.7,-0.2 -0.89,-0.46 -0.91,0.27 0.19,1.29 0.21,0.9 0.59,1.25 0.35,-0.58 0.31,-0.33 0.32,-1.52z"/>
   <polygon class="fil17" points="10.89,12.36 11.35,12.39 11.82,12.45 11.99,11.56 11.63,11.59 11.03,11.57 "/>
  </g>
 </g>
</svg>
